# xmcd
#
# Track frame offsets:
#	150
#	16160
#	28165
#	43489
#	59998
#	70719
#	85807
#	102616
#	117617
#	130650
#	146567
#	162632
#	177074
#	189013
#	204909
#	219956
#	237181
#	256151
#	273143
#	292856
#	293566
#	294238
#	294976
#	296013
#	296803
#	297501
#	298253
#	298958
#	299683
#	300381
#	301086
#	302113
#	302941
#	303661
#	304403
#	305153
#	305831
#	306501
#	307288
#	308231
#	309021
#	309711
#	310493
#
# Disc length: 4146 seconds
#
# Revision: 1
# Processed by: cddbd v1.5.2PL0 Copyright (c) Steve Scherf et al.
# Submitted via: audiograbber 1.83.01
#
DISCID=bb10302b
DTITLE=Various Artist - CDX Volume 616 (May 11, 2015)
DYEAR=2015
DGENRE=Country
TTITLE0=Old Dominion - Break Up With Him
TTITLE1=Brett Eldredge - Lose My Mind
TTITLE2=Lee Brice - That Don't Sound Like You (Radio Edit)
TTITLE3=Ashley Clark - Greyhound
TTITLE4=John Anderson - I Work A Lot Better
TTITLE5=Smith N Western - Call Me
TTITLE6=Stevie Lee Woods - Good Time to Go Home
TTITLE7=Rick Monroe - Great Minds Drink Alike
TTITLE8=Michelle Wright - Laugh A Little
TTITLE9=Cody Joe Hodges - One More Drink (edit)
TTITLE10=Cody Joe Hodges - One More Drink 
TTITLE11=Bill Wence - Songs That Make Me Think About You
TTITLE12=C. W. Montgomery - Taking Applications For An Angel
TTITLE13=Mary Fletcher - The Idea Of You 
TTITLE14=Philip Claypool - Three More Beers
TTITLE15=Joe Schmidt - Jesus Loves Me
TTITLE16=Ward Davis - The Last Monday In May
TTITLE17=Little Texas - Slow Ride Home
TTITLE18=The Cowboy - Wake Up America
TTITLE19=Hannah Bethel - Radio Liner - Home Town Country
TTITLE20=Hannah Bethel - Radio Liner - Kickin' Country
TTITLE21=Hannah Bethel - Radio Liner - More Of The Country You Love
TTITLE22=Hannah Bethel - Radio Liner - My New Single
TTITLE23=Hannah Bethel - Radio Liner - Super Country Greatest Hits
TTITLE24=Hannah Bethel - Radio Liner - The Best In Country Music
TTITLE25=Hannah Bethel - Radio Liner - Today's Best Country
TTITLE26=Hannah Bethel - Radio Liner - Today's Hot Country Music
TTITLE27=Mitch Goudy - Radio Liner - Home Town Country
TTITLE28=Mitch Goudy - Radio Liner - Kickin' Country
TTITLE29=Mitch Goudy - Radio Liner - More Of The Country You Love Next
TTITLE30=Mitch Goudy - Radio Liner - My New Single
TTITLE31=Mitch Goudy - Radio Liner - Super Country Greatest Hits
TTITLE32=Mitch Goudy - Radio Liner - The Best In Country Music
TTITLE33=Mitch Goudy - Radio Liner - Today's Best Country
TTITLE34=Mitch Goudy - Radio Liner - Today's Hot New Country Music
TTITLE35=Rick Monroe - Radio Liner - Home Town Country
TTITLE36=Rick Monroe - Radio Liner - Kickin' Country
TTITLE37=Rick Monroe - Radio Liner - More Of The Country You Love
TTITLE38=Rick Monroe - Radio Liner - My New Single
TTITLE39=Rick Monroe - Radio Liner - Super Country
TTITLE40=Rick Monroe - Radio Liner - The Best In Country Music
TTITLE41=Rick Monroe - Radio Liner - Today's Best Country
TTITLE42=Rick Monroe - Radio Liner - Today's Hot Country Music
EXTD=
EXTT0=
EXTT1=
EXTT2=
EXTT3=
EXTT4=
EXTT5=
EXTT6=
EXTT7=
EXTT8=
EXTT9=
EXTT10=
EXTT11=
EXTT12=
EXTT13=
EXTT14=
EXTT15=
EXTT16=
EXTT17=
EXTT18=
EXTT19=
EXTT20=
EXTT21=
EXTT22=
EXTT23=
EXTT24=
EXTT25=
EXTT26=
EXTT27=
EXTT28=
EXTT29=
EXTT30=
EXTT31=
EXTT32=
EXTT33=
EXTT34=
EXTT35=
EXTT36=
EXTT37=
EXTT38=
EXTT39=
EXTT40=
EXTT41=
EXTT42=
PLAYORDER=
